<?xml version="1.0" standalone="no"?>
<!DOCTYPE svg PUBLIC "-//W3C//DTD SVG 20010904//EN"
 "http://www.w3.org/TR/2001/REC-SVG-20010904/DTD/svg10.dtd">
<svg version="1.0" xmlns="http://www.w3.org/2000/svg"
 width="128.000000pt" height="128.000000pt" viewBox="0 0 128.000000 128.000000"
 preserveAspectRatio="xMidYMid meet">

<g transform="translate(0.000000,128.000000) scale(0.100000,-0.100000)"
fill="#ffffff" stroke="none">
<path d="M532 1269 c-120 -20 -251 -89 -342 -179 -249 -250 -249 -650 0 -900
326 -326 872 -210 1044 222 180 453 -217 937 -702 857z m231 -124 c232 -60
397 -270 397 -505 0 -282 -238 -520 -520 -520 -282 0 -520 238 -520 520 0 232
164 443 393 505 69 18 179 19 250 0z"/>
<path d="M570 989 c-169 -34 -283 -175 -283 -349 0 -106 30 -178 102 -251 119
-118 312 -139 444 -47 l27 19 -32 45 c-17 24 -32 44 -33 44 -2 0 -28 -12 -60
-26 -112 -51 -235 -14 -300 90 -27 44 -30 58 -30 126 0 68 3 82 30 126 73 117
245 152 344 69 l28 -24 42 43 42 43 -30 26 c-64 54 -200 85 -291 66z"/>
</g>
</svg>
