<svg width="39" height="39" viewBox="0 0 39 39" fill="none" xmlns="http://www.w3.org/2000/svg">
<path d="M30.1627 27.78C28.7129 29.6471 26.7982 31.1007 24.6102 31.9955C22.4222 32.8903 20.0375 33.1949 17.6949 32.8788C15.3522 32.5627 13.1336 31.637 11.261 30.1943C9.3884 28.7516 7.92744 26.8425 7.02427 24.6579C6.1211 22.4734 5.80739 20.09 6.11451 17.7461C6.42162 15.4022 7.33881 13.1801 8.77432 11.302C10.2098 9.42386 12.1133 7.9556 14.2944 7.04406C16.4755 6.13253 18.8577 5.80968 21.2027 6.10782L20.265 13.4833C19.2115 13.3493 18.1412 13.4944 17.1613 13.9039C16.1814 14.3134 15.3262 14.9731 14.6813 15.8169C14.0364 16.6607 13.6243 17.659 13.4863 18.712C13.3483 19.7651 13.4893 20.8359 13.8951 21.8173C14.3008 22.7988 14.9572 23.6565 15.7985 24.3047C16.6398 24.9528 17.6366 25.3687 18.6891 25.5107C19.7416 25.6527 20.8129 25.5159 21.7959 25.1139C22.7789 24.7119 23.6391 24.0588 24.2905 23.22L30.1627 27.78Z" fill="#8B54FF"/>
<path d="M32.9952 19.1371C33.0474 21.0793 32.6798 23.0098 31.9175 24.7969C31.1552 26.584 30.0161 28.1855 28.5781 29.492C27.1401 30.7985 25.437 31.7792 23.5852 32.3671C21.7335 32.955 19.7766 33.1363 17.8483 32.8986C15.92 32.6609 14.0657 32.0097 12.4122 30.9897C10.7586 29.9696 9.34474 28.6046 8.26709 26.988C7.18944 25.3714 6.47343 23.5412 6.16797 21.6225C5.86252 19.7038 5.97481 17.7417 6.49718 15.8704L10.2619 16.9213C9.89081 18.2508 9.81103 19.6448 10.0281 21.008C10.2451 22.3711 10.7538 23.6714 11.5194 24.82C12.285 25.9685 13.2896 26.9383 14.4644 27.663C15.6392 28.3878 16.9566 28.8504 18.3265 29.0193C19.6965 29.1882 21.0868 29.0594 22.4025 28.6417C23.7181 28.224 24.9281 27.5272 25.9497 26.599C26.9714 25.6708 27.7807 24.533 28.3223 23.2633C28.8639 21.9936 29.125 20.622 29.0879 19.2422L32.9952 19.1371Z" fill="#FF5D39"/>
</svg>
