<svg width="39" height="39" viewBox="0 0 39 39" fill="none" xmlns="http://www.w3.org/2000/svg">
<path d="M7.64599 13.0403C8.77712 10.9646 10.4335 9.22234 12.4493 7.98772C14.4652 6.7531 16.7699 6.06944 19.1329 6.00515C21.496 5.94085 23.8345 6.49816 25.9145 7.62134C27.9945 8.74451 29.7431 10.3942 30.9855 12.4053C32.2278 14.4164 32.9203 16.7185 32.9936 19.0813C33.067 21.444 32.5186 23.7846 31.4034 25.8689C30.2883 27.9532 28.6453 29.7082 26.639 30.9582C24.6326 32.2082 22.3332 32.9095 19.9707 32.9919L19.7116 25.5616C20.773 25.5246 21.806 25.2095 22.7074 24.6479C23.6088 24.0863 24.3469 23.2979 24.848 22.3615C25.349 21.425 25.5953 20.3735 25.5624 19.312C25.5294 18.2504 25.2183 17.2162 24.6602 16.3126C24.102 15.4091 23.3164 14.6679 22.3819 14.1633C21.4474 13.6587 20.3968 13.4083 19.3352 13.4372C18.2735 13.4661 17.2381 13.7733 16.3324 14.3279C15.4267 14.8826 14.6826 15.6654 14.1744 16.5979L7.64599 13.0403Z" fill="#8B54FF"/>
<path d="M6.23854 22.026C5.87503 20.1175 5.92775 18.1529 6.39312 16.2666C6.85849 14.3803 7.72553 12.6166 8.93502 11.0961C10.1445 9.57559 11.6679 8.33407 13.4013 7.45633C15.1346 6.5786 17.0369 6.08533 18.9784 6.01024C20.9198 5.93515 22.8545 6.27999 24.6505 7.02121C26.4464 7.76243 28.0612 8.88257 29.3845 10.3051C30.7079 11.7276 31.7085 13.4191 32.3182 15.2638C32.9279 17.1085 33.1322 19.0631 32.9172 20.9941L29.0325 20.5616C29.1853 19.1897 29.0401 17.801 28.607 16.4904C28.1738 15.1797 27.4629 13.978 26.5227 12.9674C25.5825 11.9567 24.4352 11.1609 23.1593 10.6343C21.8833 10.1077 20.5088 9.86265 19.1294 9.91601C17.7501 9.96936 16.3985 10.3198 15.1671 10.9434C13.9356 11.567 12.8533 12.4491 11.994 13.5293C11.1347 14.6096 10.5187 15.8626 10.188 17.2028C9.8574 18.543 9.81994 19.9387 10.0782 21.2947L6.23854 22.026Z" fill="#FF5D39"/>
</svg>
