<svg width="572" height="448" viewBox="0 0 572 448" fill="none" xmlns="http://www.w3.org/2000/svg">
<path fill-rule="evenodd" clip-rule="evenodd" d="M541.553 135.694V95.3545H489.688V143.811H533.436C537.919 143.811 541.553 140.177 541.553 135.694Z" fill="#DCDDDD"/>
<path fill-rule="evenodd" clip-rule="evenodd" d="M523.603 143.732H487.982C487.342 143.732 486.739 143.604 486.172 143.385V63.1147H486.118V60.6652C486.118 51.637 493.246 44.308 502.182 43.961C502.402 43.961 502.621 43.9248 502.841 43.9248C512.089 43.9248 519.582 51.4179 519.582 60.6656V122.824H519.564V139.529C519.564 140.661 520.002 141.685 520.734 142.453C521.464 143.202 522.488 143.695 523.603 143.732Z" fill="#004DA1"/>
<path fill-rule="evenodd" clip-rule="evenodd" d="M360.583 43.9276C349.984 43.9276 341.393 52.519 341.393 63.1179V191.305H486.175V127.053H486.118V63.1175V60.6567C486.118 51.6415 493.254 44.3128 502.183 43.9607V43.9272H360.583V43.9276Z" fill="#DCDDDD"/>
<path d="M486.175 63.1177H486.118V127.054H486.175V63.1177Z" fill="white"/>
<path fill-rule="evenodd" clip-rule="evenodd" d="M440.961 81.3208H369.621C367.047 81.3208 364.961 83.4069 364.961 85.9802V87.3092C364.961 89.8824 367.047 91.9686 369.621 91.9686H440.961C443.534 91.9686 445.621 89.8824 445.621 87.3092V85.9802C445.621 83.4069 443.534 81.3208 440.961 81.3208Z" fill="#FBFBFB"/>
<path fill-rule="evenodd" clip-rule="evenodd" d="M440.961 117.405H369.621C367.047 117.405 364.961 119.491 364.961 122.065V123.393C364.961 125.967 367.047 128.053 369.621 128.053H440.961C443.534 128.053 445.621 125.967 445.621 123.393V122.065C445.621 119.492 443.534 117.405 440.961 117.405Z" fill="#FBFBFB"/>
<path fill-rule="evenodd" clip-rule="evenodd" d="M393.834 154.673H369.621C367.047 154.673 364.961 156.759 364.961 159.333V160.661C364.961 163.235 367.047 165.321 369.621 165.321H393.834C396.407 165.321 398.494 163.235 398.494 160.661V159.333C398.494 156.759 396.408 154.673 393.834 154.673Z" fill="white"/>
<path fill-rule="evenodd" clip-rule="evenodd" d="M509.164 264.594C535.928 250.819 550.703 219.292 549.591 189.459C549.497 186.919 553.443 186.576 553.54 189.136C554.716 220.754 539.558 253.371 510.528 268.313C508.261 269.477 506.926 265.744 509.164 264.594Z" fill="#004DA1"/>
<path fill-rule="evenodd" clip-rule="evenodd" d="M552.297 190.764C552.297 190.764 552.928 190.26 553.71 189.399C554.507 188.549 555.448 187.365 556.293 185.968C557.97 183.2 558.824 179.707 558.365 176.385C557.908 173.059 556.127 169.934 553.747 167.733C552.548 166.633 551.302 165.749 550.292 165.15C549.306 164.546 548.557 164.235 548.557 164.235C548.557 164.235 547.916 164.748 547.136 165.596C546.329 166.45 545.386 167.642 544.537 169.029C542.854 171.807 542.01 175.301 542.489 178.618C542.971 181.94 544.761 185.061 547.135 187.269C548.322 188.364 549.563 189.247 550.564 189.845C551.552 190.448 552.297 190.764 552.297 190.764Z" fill="#004DA1"/>
<path fill-rule="evenodd" clip-rule="evenodd" d="M549.289 212.448C549.289 212.448 550.013 212.818 551.106 213.186C552.216 213.562 553.678 213.944 555.291 214.144C558.505 214.547 562.048 213.905 564.893 212.13C567.747 210.364 569.879 207.461 570.917 204.391C571.436 202.843 571.732 201.353 571.868 200.183C572.018 199.037 571.999 198.229 571.999 198.229C571.999 198.229 571.263 197.854 570.177 197.485C569.064 197.093 567.595 196.719 565.977 196.504C562.76 196.101 559.224 196.753 556.39 198.545C553.547 200.327 551.425 203.238 550.386 206.309C549.86 207.839 549.56 209.329 549.427 210.495C549.274 211.638 549.289 212.448 549.289 212.448Z" fill="#004DA1"/>
<path fill-rule="evenodd" clip-rule="evenodd" d="M546.616 219.726C546.616 219.726 546.813 218.942 546.922 217.787C547.044 216.629 547.079 215.115 546.915 213.497C546.587 210.274 545.159 206.972 542.793 204.595C540.428 202.215 537.122 200.791 533.892 200.472C532.275 200.31 530.749 200.359 529.586 200.488C528.435 200.606 527.643 200.806 527.643 200.806C527.643 200.806 527.444 201.607 527.331 202.752C527.205 203.918 527.166 205.439 527.325 207.058C527.654 210.289 529.093 213.583 531.467 215.942C533.849 218.304 537.159 219.716 540.387 220.045C541.999 220.209 543.514 220.165 544.679 220.041C545.831 219.924 546.616 219.726 546.616 219.726Z" fill="#004DA1"/>
<path fill-rule="evenodd" clip-rule="evenodd" d="M537.068 242.32C537.068 242.32 537.268 241.535 537.37 240.378C537.492 239.218 537.536 237.705 537.368 236.082C537.04 232.864 535.613 229.561 533.245 227.181C530.877 224.809 527.571 223.379 524.346 223.066C522.724 222.905 521.206 222.947 520.036 223.08C518.884 223.193 518.098 223.399 518.098 223.399C518.098 223.399 517.9 224.191 517.785 225.337C517.656 226.512 517.62 228.029 517.776 229.645C518.105 232.876 519.543 236.174 521.924 238.529C524.299 240.894 527.614 242.31 530.836 242.636C532.451 242.8 533.969 242.753 535.131 242.628C536.28 242.515 537.068 242.32 537.068 242.32Z" fill="#004DA1"/>
<path fill-rule="evenodd" clip-rule="evenodd" d="M542.466 236.98C542.466 236.98 543.19 237.351 544.284 237.718C545.393 238.095 546.855 238.476 548.468 238.676C551.682 239.08 555.225 238.438 558.07 236.663C560.924 234.896 563.056 231.993 564.094 228.923C564.613 227.376 564.909 225.885 565.045 224.715C565.195 223.57 565.176 222.761 565.176 222.761C565.176 222.761 564.441 222.387 563.354 222.017C562.241 221.625 560.772 221.251 559.154 221.036C555.937 220.633 552.402 221.286 549.567 223.077C546.724 224.859 544.602 227.77 543.562 230.841C543.037 232.371 542.738 233.861 542.604 235.027C542.451 236.171 542.466 236.98 542.466 236.98Z" fill="#004DA1"/>
<path fill-rule="evenodd" clip-rule="evenodd" d="M278.948 80.8221C278.948 77.6059 276.346 75.0039 273.128 75.0039H82.0645C78.851 75.0039 76.248 77.6079 76.248 80.8221V96.9582H278.948V80.8221Z" fill="#004DA1"/>
<path fill-rule="evenodd" clip-rule="evenodd" d="M230.635 85.9792C230.635 89.4255 227.849 92.2107 224.408 92.2107C220.97 92.2107 218.177 89.4252 218.177 85.9792C218.177 82.5402 220.97 79.7529 224.408 79.7529C227.848 79.7529 230.635 82.5402 230.635 85.9792Z" fill="#F5A627"/>
<path fill-rule="evenodd" clip-rule="evenodd" d="M249.328 85.9792C249.328 89.4255 246.539 92.2107 243.101 92.2107C239.655 92.2107 236.875 89.4252 236.875 85.9792C236.875 82.5402 239.655 79.7529 243.101 79.7529C246.539 79.7529 249.325 82.5402 249.328 85.9792Z" fill="#F5A627"/>
<path fill-rule="evenodd" clip-rule="evenodd" d="M268.024 85.9792C268.024 89.4255 265.231 92.2107 261.792 92.2107C258.348 92.2107 255.559 89.4252 255.559 85.9792C255.561 82.5402 258.347 79.7529 261.792 79.7529C265.231 79.7529 268.024 82.5402 268.024 85.9792Z" fill="#F5A627"/>
<path fill-rule="evenodd" clip-rule="evenodd" d="M76.248 96.9585V186.615C76.248 189.181 77.9302 191.288 80.244 192.067L238.942 96.9589H76.248V96.9585Z" fill="#DCDDDD"/>
<path fill-rule="evenodd" clip-rule="evenodd" d="M80.2441 192.066C80.8225 192.259 81.4166 192.435 82.0647 192.435H273.133C276.347 192.435 278.947 189.829 278.947 186.614L278.949 96.958H238.942L80.2441 192.066Z" fill="#C9CACA"/>
<path fill-rule="evenodd" clip-rule="evenodd" d="M165.208 118.922H253.957C255.982 118.922 257.639 120.579 257.639 122.604C257.639 124.629 255.982 126.285 253.957 126.285H165.208C163.183 126.285 161.526 124.629 161.526 122.604C161.526 120.579 163.183 118.922 165.208 118.922Z" fill="#FBFBFB"/>
<path fill-rule="evenodd" clip-rule="evenodd" d="M165.208 133.65H253.957C255.982 133.65 257.639 135.307 257.639 137.332C257.639 139.357 255.982 141.013 253.957 141.013H165.208C163.183 141.013 161.526 139.357 161.526 137.332C161.526 135.307 163.183 133.65 165.208 133.65Z" fill="#FBFBFB"/>
<path fill-rule="evenodd" clip-rule="evenodd" d="M165.208 148.375H217.817C219.842 148.375 221.498 150.032 221.498 152.057C221.498 154.082 219.842 155.739 217.817 155.739H165.208C163.183 155.739 161.526 154.082 161.526 152.057C161.526 150.032 163.183 148.375 165.208 148.375Z" fill="#FBFBFB"/>
<path fill-rule="evenodd" clip-rule="evenodd" d="M165.208 163.108H217.817C219.842 163.108 221.498 164.765 221.498 166.79C221.498 168.815 219.842 170.471 217.817 170.471H165.208C163.183 170.471 161.526 168.815 161.526 166.79C161.526 164.765 163.183 163.108 165.208 163.108Z" fill="#FBFBFB"/>
<path fill-rule="evenodd" clip-rule="evenodd" d="M105.294 118.922H142.998C146.651 118.922 149.639 121.91 149.639 125.562V163.829C149.639 167.481 146.651 170.469 142.998 170.469H105.294C101.642 170.469 98.6538 167.481 98.6538 163.829V125.562C98.6538 121.91 101.642 118.922 105.294 118.922Z" fill="#FBFBFB"/>
<path fill-rule="evenodd" clip-rule="evenodd" d="M133.949 138.968C133.949 133.563 129.559 129.167 124.141 129.167C118.725 129.167 114.339 133.563 114.339 138.968C114.341 142.597 116.32 145.765 119.255 147.463L119.257 155.337C119.257 158.046 121.444 160.226 124.141 160.226C126.836 160.226 129.027 158.046 129.027 155.337L129.029 147.463C131.968 145.765 133.949 142.597 133.949 138.968Z" fill="#F5A627"/>
<path fill-rule="evenodd" clip-rule="evenodd" d="M88.9927 275.529C83.1742 285.189 89.0211 291.792 94.5087 298.873C99.9748 305.945 104.527 308.017 103.112 318.481C100.305 339.257 117.975 360.254 112.891 366.323C112.519 366.77 111.957 366.785 111.26 366.452C106.669 364.291 96.0962 347.199 91.7728 338.559C86.816 328.598 74.334 323.112 69.3971 315.221C64.454 307.316 71.2303 300.487 65.3861 291.217C59.5355 281.933 44.6939 282.528 41.7323 273.753C38.7704 264.978 46.151 256.125 45.0367 246.539C43.9377 236.946 38.1828 221.117 50.214 216.14C62.2383 211.148 71.208 235.642 74.9353 238.751C78.6625 241.86 89.7393 246.168 93.2474 251.452C96.7347 256.727 94.8256 265.863 88.9927 275.529Z" fill="#EF7A00"/>
<path fill-rule="evenodd" clip-rule="evenodd" d="M104.55 333.908C105.578 344.349 104.99 351.11 108.319 357.361C110.897 362.182 113.794 366.152 111.654 366.985C111.03 367.223 109.968 367.192 108.332 366.825C108.332 366.825 105.244 365.213 99.5013 358.848C93.7447 352.489 88.4782 360.735 77.0852 360.404C65.6776 360.079 66.8333 350.563 62.6005 343.589C58.3598 336.637 50.1715 351.708 37.5394 345.879C24.907 340.05 34.0579 334.826 19.6439 324.004C16.2807 321.482 15.7878 319.104 16.9152 316.975L16.9087 316.96C19.3243 312.382 29.2762 308.904 34.3235 307.489C41.7045 305.441 48.4839 295.217 56.5006 302.716C64.5383 310.223 65.9524 325.594 78.6197 324.781C91.3016 323.961 103.522 323.467 104.55 333.908Z" fill="#EF7A00"/>
<path fill-rule="evenodd" clip-rule="evenodd" d="M111.647 366.97L111.654 366.986C111.03 367.224 110.132 367.852 108.332 366.826C108.332 366.826 105.244 365.214 99.5013 358.849C93.7447 352.49 88.4782 360.736 77.0852 360.404C65.6776 360.079 66.8333 350.564 62.6005 343.59C58.3598 336.638 50.1715 351.709 37.5394 345.88C24.907 340.05 34.0579 334.827 19.6439 324.005C16.2807 321.483 15.7878 319.105 16.9152 316.976C16.9152 316.976 35.98 318.028 53.8013 323.535C71.6075 329.048 104.922 354.356 111.647 366.97Z" fill="#FED642"/>
<path fill-rule="evenodd" clip-rule="evenodd" d="M133.149 274.219C133.637 281.769 123.845 285.408 123.954 295.133C124.029 300.893 133.813 302.055 135.842 311.417C137.471 318.893 128.14 330.308 121.782 336.065C115.417 341.807 116.851 351.838 116.991 359.488C117.11 367.13 113.499 366.351 113.499 366.351C112.04 366.671 111.432 362.247 110.129 355.391C108.827 348.535 105.881 338.297 101.918 332.626C97.9467 326.977 89.2456 316.58 98.0212 306.209C106.797 295.838 93.247 292.614 88.6136 280.717C85.5023 272.736 95.8349 267.492 91.1673 258.879C86.5001 250.266 91.0214 242.347 97.8178 237.588C104.614 232.83 105.128 217.803 115.12 219.638C125.111 221.474 122.404 238.955 122.036 248.888C121.653 258.83 132.314 261.543 133.149 274.219Z" fill="#FED642"/>
<path fill-rule="evenodd" clip-rule="evenodd" d="M133.149 274.219C133.637 281.769 123.844 285.408 123.953 295.133C124.028 300.893 133.813 302.055 135.842 311.417C137.47 318.893 128.139 330.308 121.781 336.065C115.417 341.807 116.85 351.838 116.991 359.488C117.11 367.13 113.499 366.351 113.499 366.351C112.404 359.724 107.646 306.558 107.892 279.436C108.247 240.422 115.119 219.639 115.119 219.639C125.11 221.474 122.403 238.955 122.036 248.889C121.653 258.83 132.314 261.543 133.149 274.219Z" fill="#EF7A00"/>
<path fill-rule="evenodd" clip-rule="evenodd" d="M78.9374 299.184C96.9839 338.938 112.89 366.323 112.89 366.323C111.697 366.417 110.49 366.069 109.595 365.275C104.477 360.731 95.633 346.276 91.7718 338.56C86.815 328.599 74.333 323.113 69.3961 315.222C64.453 307.317 71.2293 300.488 65.3851 291.218C59.5345 281.934 44.6929 282.529 41.7313 273.754C38.7694 264.978 46.1501 256.125 45.0357 246.54C43.9368 236.947 38.1818 221.118 50.213 216.141C50.2133 216.141 60.9059 259.423 78.9374 299.184Z" fill="#FED642"/>
<path fill-rule="evenodd" clip-rule="evenodd" d="M155.676 282.074C129.116 270.981 112.632 242.052 111.423 213.531C111.319 211.102 107.532 211.076 107.634 213.522C108.919 243.752 125.851 273.69 154.659 285.724C156.909 286.661 157.898 283.001 155.676 282.074Z" fill="#0075BD"/>
<path fill-rule="evenodd" clip-rule="evenodd" d="M107.918 217.667C107.918 217.667 107.131 217.245 106.108 216.463C105.07 215.696 103.81 214.596 102.612 213.243C100.235 210.564 98.6092 206.932 98.4465 203.224C98.2814 199.513 99.5971 195.756 101.75 192.885C102.835 191.45 104.015 190.238 104.996 189.385C105.949 188.531 106.702 188.043 106.702 188.043C106.702 188.043 107.502 188.474 108.52 189.241C109.569 190.01 110.834 191.12 112.034 192.46C114.419 195.148 116.035 198.783 116.174 202.49C116.312 206.202 114.985 209.957 112.842 212.833C111.768 214.262 110.594 215.47 109.622 216.32C108.666 217.175 107.918 217.667 107.918 217.667Z" fill="#0075BD"/>
<path fill-rule="evenodd" clip-rule="evenodd" d="M115.514 240.673C115.514 240.673 114.8 241.221 113.682 241.838C112.549 242.469 111.034 243.176 109.318 243.715C105.899 244.795 101.915 244.802 98.4641 243.437C95.0056 242.083 92.1055 239.348 90.3639 236.212C89.4906 234.631 88.8709 233.068 88.4897 231.822C88.0987 230.604 87.9575 229.721 87.9575 229.721C87.9575 229.721 88.6839 229.166 89.7928 228.547C90.9259 227.9 92.4508 227.2 94.1691 226.643C97.5911 225.563 101.57 225.568 105.012 226.954C108.463 228.327 111.353 231.073 113.097 234.208C113.973 235.77 114.597 237.332 114.974 238.574C115.369 239.788 115.514 240.673 115.514 240.673Z" fill="#0075BD"/>
<path fill-rule="evenodd" clip-rule="evenodd" d="M119.875 248.063C119.875 248.063 119.504 247.248 119.155 246.012C118.791 244.777 118.452 243.135 118.308 241.341C118.022 237.767 118.919 233.887 121.02 230.828C123.121 227.766 126.436 225.558 129.888 224.567C131.616 224.068 133.287 223.818 134.578 223.726C135.855 223.625 136.757 223.684 136.757 223.684C136.757 223.684 137.134 224.517 137.485 225.741C137.855 226.985 138.201 228.633 138.349 230.427C138.635 234.009 137.725 237.882 135.611 240.923C133.489 243.969 130.166 246.167 126.719 247.167C124.996 247.667 123.338 247.921 122.046 248.019C120.769 248.121 119.875 248.063 119.875 248.063Z" fill="#0075BD"/>
<path fill-rule="evenodd" clip-rule="evenodd" d="M134.772 270.755C134.772 270.755 134.397 269.94 134.056 268.701C133.692 267.463 133.343 265.825 133.202 264.024C132.918 260.455 133.813 256.576 135.916 253.513C138.02 250.459 141.335 248.244 144.783 247.259C146.516 246.761 148.177 246.504 149.477 246.416C150.754 246.31 151.65 246.377 151.65 246.377C151.65 246.377 152.023 247.2 152.378 248.425C152.752 249.678 153.094 251.322 153.246 253.112C153.532 256.695 152.624 260.572 150.502 263.61C148.388 266.658 145.061 268.859 141.619 269.857C139.894 270.357 138.232 270.608 136.941 270.704C135.668 270.81 134.772 270.755 134.772 270.755Z" fill="#0075BD"/>
<path fill-rule="evenodd" clip-rule="evenodd" d="M127.831 266.018C127.831 266.018 127.117 266.567 126 267.184C124.867 267.815 123.352 268.522 121.635 269.061C118.217 270.141 114.232 270.148 110.782 268.783C107.323 267.428 104.423 264.693 102.681 261.558C101.808 259.977 101.188 258.414 100.807 257.167C100.416 255.95 100.275 255.066 100.275 255.066C100.275 255.066 101.002 254.512 102.111 253.893C103.244 253.245 104.769 252.545 106.487 251.988C109.909 250.908 113.888 250.914 117.33 252.299C120.78 253.672 123.67 256.418 125.414 259.554C126.291 261.115 126.914 262.678 127.291 263.919C127.687 265.134 127.831 266.018 127.831 266.018Z" fill="#0075BD"/>
<path fill-rule="evenodd" clip-rule="evenodd" d="M163.96 280.373C150.518 266.009 148.359 243.354 155.606 225.238C156.223 223.695 153.869 222.617 153.247 224.17C145.568 243.372 147.723 266.781 162.303 282.362C163.442 283.578 165.085 281.574 163.96 280.373Z" fill="#004DA1"/>
<path fill-rule="evenodd" clip-rule="evenodd" d="M153.107 227.106C153.107 227.106 152.797 226.604 152.471 225.82C152.131 225.039 151.775 223.994 151.538 222.825C151.065 220.508 151.336 217.896 152.468 215.724C153.6 213.549 155.594 211.837 157.772 210.908C158.866 210.446 159.941 210.144 160.784 209.981C161.61 209.808 162.201 209.778 162.201 209.778C162.201 209.778 162.516 210.288 162.844 211.063C163.19 211.849 163.545 212.901 163.788 214.064C164.263 216.388 163.985 218.999 162.839 221.163C161.691 223.329 159.693 225.036 157.518 225.971C156.432 226.432 155.362 226.735 154.525 226.899C153.697 227.072 153.107 227.106 153.107 227.106Z" fill="#004DA1"/>
<path fill-rule="evenodd" clip-rule="evenodd" d="M149.845 242.76C149.845 242.76 149.256 242.837 148.413 242.821C147.558 242.807 146.458 242.71 145.3 242.451C142.99 241.938 140.711 240.626 139.19 238.706C137.662 236.789 136.909 234.268 136.949 231.901C136.973 230.709 137.135 229.611 137.329 228.773C137.508 227.949 137.719 227.397 137.719 227.397C137.719 227.397 138.318 227.32 139.156 227.333C140.017 227.337 141.12 227.441 142.286 227.691C144.598 228.205 146.869 229.523 148.378 231.452C149.896 233.376 150.639 235.9 150.6 238.268C150.585 239.45 150.424 240.549 150.229 241.383C150.054 242.207 149.845 242.76 149.845 242.76Z" fill="#004DA1"/>
<path fill-rule="evenodd" clip-rule="evenodd" d="M149.895 248.423C149.895 248.423 149.952 247.835 150.16 247.014C150.361 246.188 150.71 245.138 151.221 244.066C152.238 241.929 154.033 240.008 156.244 238.955C158.456 237.9 161.08 237.733 163.38 238.308C164.532 238.594 165.569 239.003 166.337 239.377C167.1 239.741 167.596 240.074 167.596 240.074C167.596 240.074 167.536 240.674 167.332 241.489C167.132 242.322 166.785 243.378 166.278 244.452C165.257 246.594 163.458 248.506 161.245 249.545C159.026 250.584 156.401 250.741 154.101 250.174C152.951 249.89 151.921 249.487 151.149 249.116C150.386 248.752 149.895 248.423 149.895 248.423Z" fill="#004DA1"/>
<path fill-rule="evenodd" clip-rule="evenodd" d="M150.907 266.312C150.907 266.312 150.963 265.722 151.177 264.902C151.378 264.073 151.72 263.023 152.235 261.947C153.252 259.814 155.045 257.894 157.259 256.838C159.47 255.789 162.096 255.619 164.391 256.195C165.546 256.483 166.58 256.885 167.352 257.264C168.117 257.626 168.607 257.961 168.607 257.961C168.607 257.961 168.548 258.554 168.346 259.371C168.146 260.21 167.798 261.262 167.294 262.336C166.273 264.477 164.473 266.392 162.256 267.427C160.041 268.47 157.413 268.629 155.117 268.061C153.966 267.777 152.933 267.371 152.164 266.999C151.401 266.639 150.907 266.312 150.907 266.312Z" fill="#004DA1"/>
<path fill-rule="evenodd" clip-rule="evenodd" d="M150.087 259.825C150.087 259.825 149.512 259.975 148.675 260.064C147.824 260.156 146.721 260.197 145.539 260.084C143.183 259.864 140.759 258.845 139.011 257.129C137.255 255.417 136.194 253.01 135.94 250.657C135.815 249.471 135.84 248.361 135.928 247.506C136.002 246.665 136.144 246.091 136.144 246.091C136.144 246.091 136.727 245.941 137.561 245.849C138.416 245.746 139.523 245.712 140.711 245.814C143.069 246.036 145.487 247.061 147.224 248.787C148.97 250.508 150.022 252.919 150.277 255.274C150.41 256.448 150.387 257.558 150.298 258.41C150.226 259.25 150.087 259.825 150.087 259.825Z" fill="#004DA1"/>
<path fill-rule="evenodd" clip-rule="evenodd" d="M123.174 331.167C155.265 331.167 181.597 355.811 184.286 387.205H0C5.63563 368.696 23.7502 355.15 45.2276 355.15C54.341 355.15 62.8472 357.591 70.0539 361.813C80.6641 343.492 100.479 331.167 123.174 331.167Z" fill="#0065B1"/>
<path fill-rule="evenodd" clip-rule="evenodd" d="M123.173 331.167C142.494 331.167 159.722 340.1 170.965 354.06C167.895 355.864 164.547 357.575 160.939 359.165C139.493 368.62 108.899 373.848 78.6119 376.077C49.195 378.242 20.0707 377.579 7.29297 373.243C15.8556 362.272 29.6574 355.15 45.2298 355.15C54.3432 355.15 62.8471 357.592 70.053 361.814C80.6653 343.492 100.479 331.167 123.173 331.167Z" fill="#87BEE7"/>
<path fill-rule="evenodd" clip-rule="evenodd" d="M102.105 330.686C102.421 335.861 99.1434 340.679 99.1434 340.679C99.1434 340.679 95.3543 337.108 95.0391 331.933C94.7226 326.758 98.0007 321.94 98.0007 321.94C98.0007 321.94 101.79 325.511 102.105 330.686Z" fill="#87BEE7"/>
<path fill-rule="evenodd" clip-rule="evenodd" d="M95.3694 334.406C99.2973 337.374 100.161 342.731 100.161 342.731C100.161 342.731 94.6571 343.277 90.7302 340.309C86.802 337.341 85.9375 331.983 85.9375 331.983C85.9375 331.983 91.4415 331.437 95.3694 334.406Z" fill="#87BEE7"/>
<path fill-rule="evenodd" clip-rule="evenodd" d="M45.421 372.812C45.2111 376.257 47.3936 379.465 47.3936 379.465C47.3936 379.465 49.9163 377.088 50.1265 373.643C50.3371 370.198 48.1549 366.99 48.1549 366.99C48.1549 366.99 45.6308 369.367 45.421 372.812Z" fill="#0065B1"/>
<path fill-rule="evenodd" clip-rule="evenodd" d="M49.9059 375.289C47.2903 377.265 46.7153 380.832 46.7153 380.832C46.7153 380.832 50.3797 381.196 52.995 379.219C55.6096 377.243 56.1849 373.676 56.1849 373.676C56.1849 373.676 52.5215 373.313 49.9059 375.289Z" fill="#0065B1"/>
<path fill-rule="evenodd" clip-rule="evenodd" d="M227.226 277.266H116.582C110.434 277.266 105.45 282.25 105.45 288.398V359.747C105.45 365.895 110.434 370.88 116.582 370.88H227.226C233.374 370.88 238.358 365.895 238.358 359.747V288.398C238.358 282.25 233.374 277.266 227.226 277.266Z" fill="#DCDDDD"/>
<path d="M119.701 294.149C122.078 294.149 124.004 292.222 124.004 289.846C124.004 287.469 122.078 285.542 119.701 285.542C117.325 285.542 115.398 287.469 115.398 289.846C115.398 292.222 117.325 294.149 119.701 294.149Z" fill="white"/>
<path d="M134.964 294.149C137.341 294.149 139.268 292.222 139.268 289.846C139.268 287.469 137.341 285.542 134.964 285.542C132.588 285.542 130.661 287.469 130.661 289.846C130.661 292.222 132.588 294.149 134.964 294.149Z" fill="white"/>
<path d="M150.745 294.149C153.122 294.149 155.048 292.222 155.048 289.846C155.048 287.469 153.122 285.542 150.745 285.542C148.369 285.542 146.442 287.469 146.442 289.846C146.442 292.222 148.369 294.149 150.745 294.149Z" fill="white"/>
<path fill-rule="evenodd" clip-rule="evenodd" d="M143.88 306.885H119.761C117.429 306.885 115.539 308.776 115.539 311.107V335.226C115.539 337.558 117.429 339.449 119.761 339.449H143.88C146.212 339.449 148.102 337.558 148.102 335.226V311.107C148.102 308.776 146.212 306.885 143.88 306.885Z" fill="white"/>
<path fill-rule="evenodd" clip-rule="evenodd" d="M202.269 308.598H161.233C159.625 308.598 158.322 309.901 158.322 311.508V311.508C158.322 313.115 159.625 314.419 161.233 314.419H202.269C203.877 314.419 205.18 313.115 205.18 311.508V311.508C205.18 309.9 203.877 308.598 202.269 308.598Z" fill="white"/>
<path fill-rule="evenodd" clip-rule="evenodd" d="M202.269 321.403H161.233C159.625 321.403 158.322 322.706 158.322 324.313C158.322 325.921 159.625 327.224 161.233 327.224H202.269C203.877 327.224 205.18 325.921 205.18 324.313C205.18 322.706 203.877 321.403 202.269 321.403Z" fill="white"/>
<path fill-rule="evenodd" clip-rule="evenodd" d="M182.188 333.918H161.233C159.625 333.918 158.322 335.221 158.322 336.828C158.322 338.436 159.625 339.739 161.233 339.739H182.188C183.795 339.739 185.098 338.436 185.098 336.828C185.098 335.221 183.795 333.918 182.188 333.918Z" fill="white"/>
<path fill-rule="evenodd" clip-rule="evenodd" d="M220.314 348.761H118.838C117.23 348.761 115.927 350.065 115.927 351.672C115.927 353.279 117.23 354.582 118.838 354.582H220.314C221.921 354.582 223.224 353.279 223.224 351.672C223.224 350.064 221.921 348.761 220.314 348.761Z" fill="white"/>
<path fill-rule="evenodd" clip-rule="evenodd" d="M481.209 217.105C487.161 226.987 481.18 233.742 475.566 240.985C469.975 248.22 465.318 250.339 466.765 261.044C469.637 282.298 451.561 303.776 456.762 309.985C457.142 310.442 457.717 310.458 458.431 310.117C463.127 307.906 473.943 290.422 478.365 281.584C483.436 271.393 496.204 265.781 501.255 257.709C506.312 249.622 499.38 242.636 505.358 233.154C511.343 223.656 526.526 224.265 529.555 215.288C532.585 206.311 525.035 197.255 526.175 187.449C527.299 177.636 533.186 161.443 520.879 156.352C508.578 151.246 499.402 176.302 495.589 179.482C491.777 182.662 480.445 187.069 476.857 192.474C473.289 197.871 475.242 207.217 481.209 217.105Z" fill="#EF7A00"/>
<path fill-rule="evenodd" clip-rule="evenodd" d="M465.294 276.825C464.243 287.506 464.844 294.422 461.439 300.817C458.802 305.749 455.838 309.81 458.027 310.662C458.665 310.906 459.752 310.874 461.425 310.499C461.425 310.499 464.584 308.85 470.459 302.339C476.348 295.834 481.735 304.269 493.39 303.93C505.06 303.597 503.878 293.863 508.207 286.729C512.546 279.617 520.922 295.034 533.844 289.071C546.767 283.108 537.406 277.765 552.151 266.694C555.591 264.114 556.095 261.681 554.942 259.503L554.949 259.488C552.478 254.805 542.297 251.247 537.135 249.799C529.584 247.704 522.649 237.246 514.448 244.917C506.225 252.596 504.779 268.321 491.821 267.489C478.847 266.649 466.345 266.144 465.294 276.825Z" fill="#EF7A00"/>
<path fill-rule="evenodd" clip-rule="evenodd" d="M458.034 310.647L458.027 310.662C458.665 310.906 459.583 311.549 461.425 310.499C461.425 310.499 464.584 308.85 470.458 302.339C476.348 295.834 481.735 304.269 493.389 303.93C505.059 303.597 503.877 293.863 508.207 286.729C512.545 279.617 520.922 295.035 533.844 289.071C546.766 283.108 537.405 277.765 552.151 266.694C555.591 264.114 556.095 261.682 554.942 259.503C554.942 259.503 535.439 260.58 517.208 266.213C498.993 271.853 464.913 297.743 458.034 310.647Z" fill="#FED642"/>
<path fill-rule="evenodd" clip-rule="evenodd" d="M436.038 215.765C435.539 223.489 445.556 227.212 445.445 237.16C445.368 243.052 435.358 244.24 433.283 253.817C431.618 261.465 441.163 273.142 447.666 279.032C454.177 284.906 452.711 295.168 452.567 302.994C452.445 310.811 456.139 310.014 456.139 310.014C457.632 310.342 458.254 305.816 459.587 298.802C460.918 291.789 463.932 281.315 467.986 275.514C472.049 269.736 480.95 259.1 471.973 248.49C462.996 237.881 476.857 234.583 481.597 222.413C484.78 214.249 474.21 208.884 478.984 200.073C483.759 191.263 479.134 183.162 472.181 178.294C465.229 173.426 464.703 158.054 454.482 159.931C444.262 161.809 447.03 179.692 447.406 189.854C447.798 200.022 436.892 202.798 436.038 215.765Z" fill="#FED642"/>
<path fill-rule="evenodd" clip-rule="evenodd" d="M436.038 215.765C435.539 223.489 445.556 227.211 445.445 237.16C445.368 243.052 435.358 244.24 433.283 253.817C431.618 261.465 441.163 273.142 447.666 279.031C454.177 284.905 452.711 295.167 452.567 302.993C452.445 310.81 456.139 310.014 456.139 310.014C457.259 303.235 462.127 248.847 461.875 221.103C461.512 181.192 454.482 159.931 454.482 159.931C444.262 161.808 447.03 179.691 447.406 189.853C447.798 200.022 436.892 202.798 436.038 215.765Z" fill="#EF7A00"/>
<path fill-rule="evenodd" clip-rule="evenodd" d="M491.495 241.303C473.034 281.97 456.762 309.985 456.762 309.985C457.983 310.081 459.217 309.725 460.133 308.912C465.368 304.263 474.416 289.476 478.366 281.584C483.436 271.394 496.205 265.782 501.255 257.709C506.312 249.622 499.38 242.636 505.358 233.154C511.343 223.656 526.526 224.265 529.556 215.288C532.585 206.311 525.035 197.255 526.175 187.449C527.299 177.636 533.186 161.443 520.879 156.352C520.879 156.352 509.94 200.629 491.495 241.303Z" fill="#FED642"/>
<path fill-rule="evenodd" clip-rule="evenodd" d="M41.0598 406.679C49.7606 406.679 57.6143 410.3 63.1986 416.119C65.5029 413.717 68.7454 412.221 72.3376 412.221C75.9305 412.221 79.1734 413.717 81.4786 416.119H63.1986H18.9233C24.507 410.3 32.3604 406.679 41.0598 406.679Z" fill="#006AB5"/>
<path fill-rule="evenodd" clip-rule="evenodd" d="M430.838 438.387C423.745 438.387 417.342 441.34 412.789 446.084C410.91 444.125 408.267 442.906 405.338 442.906C402.409 442.906 399.765 444.125 397.886 446.084H412.789H448.885C444.333 441.34 437.931 438.387 430.838 438.387Z" fill="#006AB5"/>
<path fill-rule="evenodd" clip-rule="evenodd" d="M204.643 441.052H189.235C187.908 441.052 186.822 439.967 186.822 438.64C186.822 437.313 187.908 436.227 189.235 436.227H204.643C205.969 436.227 207.055 437.313 207.055 438.64C207.055 439.967 205.969 441.052 204.643 441.052Z" fill="#EF7A00"/>
<path fill-rule="evenodd" clip-rule="evenodd" d="M125.733 433.03H116.777C115.404 433.03 114.281 431.907 114.281 430.534V430.249C114.281 428.876 115.404 427.752 116.777 427.752H125.733C127.106 427.752 128.23 428.876 128.23 430.249V430.534C128.23 431.907 127.106 433.03 125.733 433.03Z" fill="#EF7A00"/>
<path fill-rule="evenodd" clip-rule="evenodd" d="M145.295 433.03H136.339C134.966 433.03 133.843 431.907 133.843 430.534V430.249C133.843 428.876 134.966 427.752 136.339 427.752H145.295C146.668 427.752 147.792 428.876 147.792 430.249V430.534C147.792 431.907 146.668 433.03 145.295 433.03Z" fill="#EF7A00"/>
<path fill-rule="evenodd" clip-rule="evenodd" d="M162.684 433.03H153.728C152.355 433.03 151.232 431.907 151.232 430.534V430.249C151.232 428.876 152.355 427.752 153.728 427.752H162.684C164.057 427.752 165.181 428.876 165.181 430.249V430.534C165.181 431.907 164.057 433.03 162.684 433.03Z" fill="#EF7A00"/>
<path fill-rule="evenodd" clip-rule="evenodd" d="M180.162 441.361H171.206C169.833 441.361 168.709 440.238 168.709 438.864V438.58C168.709 437.206 169.833 436.083 171.206 436.083H180.162C181.535 436.083 182.658 437.206 182.658 438.58V438.864C182.658 440.238 181.535 441.361 180.162 441.361Z" fill="#EF7A00"/>
<path fill-rule="evenodd" clip-rule="evenodd" d="M186.649 432.784H171.584C170.193 432.784 169.055 431.645 169.055 430.254C169.055 428.863 170.193 427.725 171.584 427.725H186.649C188.041 427.725 189.179 428.863 189.179 430.254C189.179 431.645 188.041 432.784 186.649 432.784Z" fill="#EF7A00"/>
<path fill-rule="evenodd" clip-rule="evenodd" d="M379.215 25.2425C385.641 25.2425 385.652 15.2544 379.215 15.2544C372.788 15.2544 372.777 25.2425 379.215 25.2425Z" fill="#EF7A00"/>
<path fill-rule="evenodd" clip-rule="evenodd" d="M396.06 25.242C402.487 25.242 402.497 15.2539 396.06 15.2539C389.633 15.2539 389.622 25.242 396.06 25.242Z" fill="#EF7A00"/>
<path fill-rule="evenodd" clip-rule="evenodd" d="M362.652 25.2425C369.079 25.2425 369.089 15.2544 362.652 15.2544C356.225 15.2544 356.215 25.2425 362.652 25.2425Z" fill="#EF7A00"/>
<path fill-rule="evenodd" clip-rule="evenodd" d="M362.166 9.98807C368.592 9.98807 368.603 0 362.166 0C355.739 0.000341823 355.728 9.98807 362.166 9.98807Z" fill="#0075BD"/>
<path fill-rule="evenodd" clip-rule="evenodd" d="M379.012 9.98807C385.438 9.98807 385.449 0 379.012 0C372.585 0.000341823 372.574 9.98807 379.012 9.98807Z" fill="#0075BD"/>
<path fill-rule="evenodd" clip-rule="evenodd" d="M345.603 9.98807C352.03 9.98807 352.041 0 345.603 0C339.177 0.000341823 339.166 9.98807 345.603 9.98807Z" fill="#0075BD"/>
<path fill-rule="evenodd" clip-rule="evenodd" d="M160.537 62.9319C166.963 62.9319 166.974 52.9438 160.537 52.9438C154.11 52.9438 154.099 62.9319 160.537 62.9319Z" fill="#0075BD"/>
<path fill-rule="evenodd" clip-rule="evenodd" d="M177.383 62.9319C183.809 62.9319 183.82 52.9438 177.383 52.9438C170.957 52.9438 170.946 62.9319 177.383 62.9319Z" fill="#0075BD"/>
<path fill-rule="evenodd" clip-rule="evenodd" d="M143.976 62.9319C150.402 62.9319 150.413 52.9438 143.976 52.9438C137.549 52.9438 137.538 62.9319 143.976 62.9319Z" fill="#0075BD"/>
<path fill-rule="evenodd" clip-rule="evenodd" d="M551.234 280.901H395.127C384.457 280.901 375.806 289.551 375.806 300.221V381.848C375.806 392.518 384.457 401.168 395.127 401.168H551.234C561.904 401.168 570.555 392.518 570.555 381.848V300.221C570.555 289.551 561.904 280.901 551.234 280.901Z" fill="#C9CACA"/>
<path fill-rule="evenodd" clip-rule="evenodd" d="M528.342 302.421H372.234C361.564 302.421 352.914 311.071 352.914 321.741V403.368C352.914 414.039 361.564 422.688 372.234 422.688H528.342C539.012 422.688 547.662 414.038 547.662 403.368V321.741C547.662 311.071 539.011 302.421 528.342 302.421Z" fill="#004DA1"/>
<path fill-rule="evenodd" clip-rule="evenodd" d="M409.006 323.088V342.534C409.006 345.894 406.309 348.591 402.95 348.591H374.297C370.962 348.591 368.241 345.894 368.241 342.534V323.088C368.241 319.752 370.962 317.056 374.297 317.056H402.95C406.309 317.056 409.006 319.752 409.006 323.088Z" fill="#F5A627"/>
<path fill-rule="evenodd" clip-rule="evenodd" d="M380.826 327.039C380.826 328.316 379.785 329.357 378.532 329.357H368.241V324.744H378.532C379.785 324.744 380.826 325.785 380.826 327.039Z" fill="#F18B00"/>
<path fill-rule="evenodd" clip-rule="evenodd" d="M380.826 338.583C380.826 339.861 379.785 340.902 378.532 340.902H368.241V336.289H378.532C379.785 336.289 380.826 337.329 380.826 338.583Z" fill="#F18B00"/>
<path fill-rule="evenodd" clip-rule="evenodd" d="M409.006 324.744V329.357H398.738C397.461 329.357 396.42 328.316 396.42 327.039C396.42 325.785 397.461 324.744 398.738 324.744H409.006V324.744Z" fill="#F18B00"/>
<path fill-rule="evenodd" clip-rule="evenodd" d="M409.006 336.289V340.902H398.738C397.461 340.902 396.42 339.861 396.42 338.583C396.42 337.329 397.461 336.289 398.738 336.289H409.006V336.289Z" fill="#F18B00"/>
<path fill-rule="evenodd" clip-rule="evenodd" d="M436.518 372.209H371.17C369.823 372.209 368.721 373.312 368.721 374.659V378.639C368.721 379.986 369.823 381.088 371.17 381.088H436.518C437.865 381.088 438.967 379.986 438.967 378.639V374.659C438.967 373.312 437.865 372.209 436.518 372.209Z" fill="#F5A627"/>
<path fill-rule="evenodd" clip-rule="evenodd" d="M411.105 388.189H371.17C369.823 388.189 368.721 389.292 368.721 390.639V394.619C368.721 395.966 369.823 397.068 371.17 397.068H411.105C412.451 397.068 413.554 395.966 413.554 394.619V390.639C413.554 389.292 412.451 388.189 411.105 388.189Z" fill="#F5A627"/>
<path fill-rule="evenodd" clip-rule="evenodd" d="M496.365 384.519C496.365 389.312 498.15 393.654 501.133 396.957C499.081 398.102 496.711 398.768 494.181 398.768C486.324 398.768 479.932 392.376 479.932 384.519C479.932 376.661 486.324 370.296 494.181 370.296C496.711 370.296 499.081 370.962 501.133 372.107C498.149 375.41 496.365 379.725 496.365 384.519Z" fill="#F5A627"/>
<path d="M515.035 398.762C522.897 398.762 529.27 392.389 529.27 384.528C529.27 376.666 522.897 370.293 515.035 370.293C507.174 370.293 500.801 376.666 500.801 384.528C500.801 392.389 507.174 398.762 515.035 398.762Z" fill="#FBFBFB"/>
<path fill-rule="evenodd" clip-rule="evenodd" d="M442.427 140.496C388.728 140.496 318.579 94.7907 318.2 94.3306C317.821 94.7907 247.67 140.496 193.972 140.496C186.388 140.496 178.956 140.119 171.705 139.421V225.898C171.705 305.961 211.422 380.095 276.216 420.97L318.2 447.455L360.182 420.97C424.976 380.095 464.693 305.961 464.693 225.898V139.421C457.442 140.119 450.01 140.496 442.427 140.496Z" fill="#0075BD"/>
<path fill-rule="evenodd" clip-rule="evenodd" d="M289.346 400.158C231.961 363.957 196.312 297.186 196.312 225.9V165.082C221.82 164.588 252.176 156.101 286.596 139.834C286.863 139.707 303.797 131.492 318.2 123.198C332.603 131.492 349.536 139.707 349.803 139.834C384.224 156.102 414.579 164.59 440.088 165.082V225.899C440.088 297.185 404.439 363.957 347.052 400.158L318.2 418.361L289.346 400.158Z" fill="#F5A627"/>
<path fill-rule="evenodd" clip-rule="evenodd" d="M425.922 164.04V209.509C425.922 288.1 386.62 361.714 323.351 401.626L307.511 411.62L318.2 418.361L347.052 400.158C404.439 363.957 440.089 297.185 440.089 225.9V165.081C435.522 164.993 430.793 164.638 425.922 164.04Z" fill="#EF7A00"/>
<path fill-rule="evenodd" clip-rule="evenodd" d="M366.335 240.169C366.335 213.354 343.121 191.962 315.695 194.993C295.502 197.225 278.835 213.238 275.91 233.341C273.573 249.399 279.641 264.153 290.361 273.865C297.711 280.521 301.469 290.28 301.469 300.195V326.932C301.469 336.26 307.715 344.834 316.862 346.666C329.334 349.164 340.278 339.692 340.278 327.663V299.17C340.278 289.671 344.042 280.418 351.131 274.093C360.46 265.769 366.335 253.656 366.335 240.169Z" fill="#8A6728"/>
<path fill-rule="evenodd" clip-rule="evenodd" d="M366.335 240.169C366.335 213.354 343.121 191.962 315.695 194.993C295.502 197.225 278.835 213.238 275.91 233.341C273.573 249.399 279.641 264.153 290.361 273.865C297.711 280.521 301.469 290.28 301.469 300.195V326.932C301.469 336.26 307.715 344.834 316.862 346.666C329.334 349.164 340.278 339.692 340.278 327.663V299.17C340.278 289.671 344.042 280.418 351.131 274.093C360.46 265.769 366.335 253.656 366.335 240.169Z" fill="#0075BD"/>
<path fill-rule="evenodd" clip-rule="evenodd" d="M316.87 346.683C317.26 346.761 317.689 346.839 318.078 346.877C315.975 347.189 313.754 347.151 311.496 346.683C302.343 344.853 296.111 336.245 296.111 326.936V300.18C296.111 290.286 292.372 280.51 285.01 273.85C274.3 264.152 268.225 249.39 270.561 233.344C273.482 213.248 290.152 197.24 310.327 194.981C312.976 194.708 315.547 194.63 318.077 194.786C317.299 194.825 316.481 194.903 315.702 194.981C295.487 197.24 278.818 213.248 275.897 233.344C273.561 249.391 279.636 264.152 290.346 273.85C297.708 280.51 301.485 290.286 301.485 300.18V326.936C301.486 336.245 307.717 344.853 316.87 346.683Z" fill="#FBFBFB"/>
<path fill-rule="evenodd" clip-rule="evenodd" d="M315.695 194.993C315.415 195.024 315.145 195.085 314.867 195.121C334.053 200.451 348.16 217.987 348.16 238.871C348.16 252.359 342.285 264.472 332.955 272.795C325.867 279.12 322.102 288.372 322.102 297.873V326.366C322.102 334.282 317.348 341.067 310.549 344.085C312.434 345.309 314.553 346.205 316.862 346.666C329.334 349.164 340.278 339.692 340.278 327.664V299.171C340.278 289.671 344.042 280.418 351.131 274.094C360.461 265.769 366.335 253.657 366.335 240.169C366.335 213.354 343.121 191.962 315.695 194.993Z" fill="#004DA1"/>
<path fill-rule="evenodd" clip-rule="evenodd" d="M235.646 316.268H198.435C194.56 316.268 191.419 319.409 191.419 323.284V364.535C191.419 368.41 194.56 371.552 198.435 371.552H247.703C251.578 371.552 254.719 368.41 254.719 364.535V335.341L235.646 316.268Z" fill="#FBFBFB"/>
<path fill-rule="evenodd" clip-rule="evenodd" d="M218.836 354.994L215.299 349.99C213.771 347.829 211.29 346.545 208.644 346.545H188.743C184.241 346.545 180.592 350.194 180.592 354.695V358.439V404.165C180.592 408.666 184.241 412.315 188.743 412.315H256.025C260.526 412.315 264.175 408.666 264.175 404.165V366.59C264.175 362.089 260.526 358.439 256.025 358.439H225.491C222.845 358.439 220.364 357.155 218.836 354.994Z" fill="#004DA1"/>
<path fill-rule="evenodd" clip-rule="evenodd" d="M235.646 328.324C235.646 332.2 238.787 335.341 242.663 335.341H254.72L235.646 316.268V328.324Z" fill="#0075BD"/>
</svg>
